<?xml version="1.0" standalone="no"?>
<!DOCTYPE svg PUBLIC "-//W3C//DTD SVG 20010904//EN"
 "http://www.w3.org/TR/2001/REC-SVG-20010904/DTD/svg10.dtd">
<svg version="1.0" xmlns="http://www.w3.org/2000/svg"
 width="512.000000pt" height="512.000000pt" viewBox="0 0 512.000000 512.000000"
 preserveAspectRatio="xMidYMid meet">
<metadata>
Created by potrace 1.11, written by Peter Selinger 2001-2013
</metadata>
<g transform="translate(0.000000,512.000000) scale(0.100000,-0.100000)"
fill="#000000" stroke="none">
<path d="M0 2560 l0 -2560 2560 0 2560 0 0 2560 0 2560 -2560 0 -2560 0 0
-2560z m2636 1333 c161 -270 176 -527 40 -665 -20 -20 -36 -39 -36 -43 0 -3
13 -5 28 -5 24 0 78 -13 149 -35 18 -6 23 -2 29 21 16 67 56 120 144 195 l25
21 8 -36 c6 -21 4 -57 -3 -93 -10 -49 -20 -65 -61 -106 -52 -50 -55 -57 -37
-75 8 -8 20 -4 47 17 89 70 236 127 310 119 l33 -3 -41 -46 c-70 -80 -205
-149 -292 -149 -38 0 -37 -11 5 -34 40 -22 59 -53 54 -92 -2 -23 -9 -30 -30
-32 -36 -4 -86 23 -106 59 -10 16 -21 27 -27 25 -141 -63 -129 -61 -315 -61
-185 0 -179 -1 -315 61 -6 2 -15 -6 -20 -18 -15 -34 -74 -69 -110 -66 -26 3
-30 8 -33 34 -3 34 34 88 68 99 30 9 24 25 -9 25 -87 0 -216 67 -294 153 l-38
42 35 3 c78 7 203 -40 294 -109 l50 -37 19 20 c13 16 15 22 5 25 -28 10 -72
56 -91 96 -22 45 -30 160 -12 171 16 10 121 -101 146 -156 14 -29 25 -59 25
-65 0 -16 -7 -17 68 7 35 11 84 20 109 20 l46 0 -57 60 c-124 130 -135 247
-40 435 43 85 174 265 193 265 5 0 22 -21 37 -47z m-1771 -775 c23 -24 44 -49
46 -56 4 -11 20 -11 89 -1 101 14 153 4 195 -39 25 -24 45 -61 45 -81 0 -5
-44 -11 -97 -15 -53 -4 -98 -8 -100 -10 -2 -2 -6 -33 -10 -68 -5 -59 -4 -66
14 -72 11 -3 32 -19 47 -35 60 -62 1 -108 -126 -99 -32 2 -58 1 -58 -2 0 -15
-64 -76 -106 -101 -42 -24 -45 -28 -28 -37 149 -76 441 -52 696 58 110 48 120
56 81 64 -35 8 -87 59 -102 99 -15 38 -14 106 2 137 16 32 73 70 106 70 30 0
86 -32 112 -63 10 -12 23 -44 30 -70 9 -41 9 -55 -6 -93 -9 -24 -24 -48 -33
-53 -23 -13 98 -26 224 -24 99 2 212 22 318 58 47 16 50 16 63 -1 29 -40 18
-52 -84 -83 -54 -17 -127 -35 -163 -41 -74 -11 -243 -12 -310 -1 -38 6 -54 3
-102 -21 -258 -127 -522 -181 -714 -148 -164 29 -251 85 -303 194 -35 74 -127
179 -182 207 -50 25 -79 24 -120 -4 -29 -20 -35 -30 -39 -73 -3 -28 -12 -59
-20 -69 -19 -24 -88 -55 -121 -55 -21 0 -28 7 -37 39 -29 95 5 152 119 197 24
10 61 28 81 39 l38 21 -25 34 c-30 41 -41 91 -25 120 13 25 66 50 105 50 45 0
103 -37 125 -80 19 -37 23 -40 63 -40 23 0 59 -3 80 -6 37 -7 37 -6 37 27 0
89 56 169 118 169 27 0 44 -9 77 -42z m3559 17 c35 -32 56 -84 56 -136 l0 -42
38 7 c20 3 56 6 79 6 40 0 44 3 63 40 22 43 80 80 126 80 41 0 91 -29 104 -60
14 -35 3 -76 -35 -125 l-24 -32 83 -41 c102 -50 136 -87 136 -147 0 -24 -5
-56 -12 -70 -11 -24 -16 -26 -50 -21 -20 3 -48 11 -60 17 -37 16 -68 70 -68
116 0 37 -4 44 -36 63 -26 16 -45 21 -69 17 -77 -13 -176 -111 -237 -234 -49
-100 -122 -147 -281 -179 -192 -39 -466 15 -717 141 -59 30 -70 32 -110 24
-71 -13 -251 -10 -335 6 -105 20 -245 63 -245 76 0 9 17 47 25 57 1 2 49 -11
106 -28 124 -37 264 -53 374 -42 l79 7 1 72 c0 57 4 77 21 100 30 41 82 73
118 73 35 0 90 -30 104 -57 35 -64 20 -154 -33 -207 l-34 -34 72 -30 c168 -70
386 -108 519 -90 70 9 84 13 146 35 45 17 53 30 25 40 -27 10 -86 60 -99 84
-10 19 -20 22 -91 23 -86 1 -133 21 -133 55 0 17 40 59 82 86 14 9 14 19 5 71
l-10 62 -60 6 c-33 3 -77 6 -98 6 -43 0 -46 7 -24 49 39 76 113 102 236 81 68
-12 74 -11 84 6 5 10 26 36 46 56 45 47 91 52 133 13z m-1563 -740 c374 -38
697 -105 1042 -217 73 -24 127 -47 127 -54 0 -7 -5 -24 -11 -37 l-11 -25 -117
39 c-771 260 -1615 307 -2417 134 -134 -29 -318 -76 -413 -105 -34 -11 -64
-20 -66 -20 -8 0 -24 65 -18 70 9 8 185 59 308 89 239 59 488 102 740 126 191
18 650 18 836 0z m-313 -171 c48 -29 92 -92 92 -132 0 -30 -8 -44 -51 -84 -78
-73 -141 -75 -209 -5 -38 39 -48 86 -25 120 24 38 124 117 147 117 11 0 32 -7
46 -16z m-569 -99 c113 -58 -35 -201 -220 -213 -84 -5 -134 12 -148 51 -42
111 234 232 368 162z m1295 -29 c117 -57 155 -125 100 -177 -23 -22 -34 -24
-112 -24 -75 0 -94 4 -142 28 -72 37 -130 93 -130 127 0 30 7 40 40 64 40 28
170 18 244 -18z m-1921 -77 c9 -5 25 -21 34 -35 16 -24 15 -28 -2 -60 -36 -68
-157 -126 -265 -127 -71 -1 -102 11 -126 48 -14 22 -14 27 2 61 45 94 263 163
357 113z m2479 7 c170 -37 265 -171 154 -218 -46 -19 -142 -13 -211 12 -63 24
-155 103 -155 133 0 27 43 68 80 77 50 11 58 11 132 -4z m-792 -215 c237 -27
283 -34 405 -58 317 -62 469 -160 408 -263 -99 -169 -774 -272 -1618 -248
-584 16 -1035 112 -1124 237 -107 150 221 283 814 331 72 5 148 12 170 14 85
8 855 -2 945 -13z"/>
<path d="M2125 1749 c-286 -15 -599 -58 -763 -105 -82 -23 -180 -72 -192 -95
-28 -51 115 -114 370 -163 475 -91 1231 -100 1761 -21 249 37 460 104 482 152
10 23 8 28 -20 53 -20 18 -69 40 -127 59 -316 102 -936 151 -1511 120z"/>
</g>
</svg>
